<!DOCTYPE svg PUBLIC "-//W3C//DTD SVG 1.1//EN" "http://www.w3.org/Graphics/SVG/1.1/DTD/svg11.dtd">
<!-- Uploaded to: SVG Repo, www.svgrepo.com, Transformed by: SVG Repo Mixer Tools -->
<svg version="1.1" id="Layer_1" xmlns="http://www.w3.org/2000/svg" xmlns:xlink="http://www.w3.org/1999/xlink" viewBox="0 0 512.00 512.00" xml:space="preserve" width="256px" height="256px" fill="#000000">
<g id="SVGRepo_bgCarrier" stroke-width="0">
<rect x="0" y="0" width="512.00" height="512.00" rx="256" fill="#7ed0ec" strokewidth="0"/>
</g>
<g id="SVGRepo_tracerCarrier" stroke-linecap="round" stroke-linejoin="round"/>
<g id="SVGRepo_iconCarrier"> <path style="fill:#FA7461;" d="M502.865,188.049C473.095,79.648,373.856,0,256,0C114.615,0,0,114.615,0,256 c0,117.856,79.648,217.094,188.049,246.865L502.865,188.049z"/> <path style="fill:#F72E12;" d="M512,256c0-23.529-3.191-46.309-9.135-67.951l-89.458-89.458L98.592,413.408l89.458,89.458 c21.641,5.944,44.422,9.135,67.951,9.135C397.385,512,512,397.384,512,256z"/> <path style="fill:#FFF3AD;" d="M256,33.391L144.696,256L256,478.609c122.943,0,222.609-99.665,222.609-222.609 S378.943,33.391,256,33.391z"/> <path style="fill:#FFFFFF;" d="M33.391,256c0,122.943,99.665,222.609,222.609,222.609V33.391 C133.057,33.391,33.391,133.057,33.391,256z"/> <path style="fill:#FFD23E;" d="M256,66.783L161.391,256L256,445.217c104.501,0,189.217-84.715,189.217-189.217 S360.501,66.783,256,66.783z"/> <path style="fill:#FFE376;" d="M66.783,256c0,104.503,84.716,189.217,189.217,189.217V66.783 C151.499,66.783,66.783,151.497,66.783,256z"/> <circle style="fill:#BEC130;" cx="163.896" cy="206.447" r="55.652"/> <circle style="fill:#DDD532;" cx="206.447" cy="163.896" r="55.652"/> <path style="fill:#FA7461;" d="M137.944,137.944l19.676,59.028l59.028,19.676c21.733-21.733,21.733-56.97,0-78.704 S159.677,116.211,137.944,137.944z"/> <path style="fill:#F8513A;" d="M137.944,216.648c21.733,21.733,56.971,21.733,78.704,0l-78.704-78.704 C116.211,159.677,116.211,194.914,137.944,216.648z"/> <path style="fill:#FB9789;" d="M153.685,153.685l11.806,35.417l35.417,11.806c13.04-13.04,13.04-34.183,0-47.222 C187.867,140.644,166.725,140.644,153.685,153.685z"/> <path style="fill:#FA7461;" d="M153.685,200.908c13.04,13.04,34.183,13.04,47.222,0l-47.222-47.222 C140.644,166.725,140.644,187.867,153.685,200.908z"/> <circle style="fill:#BEC130;" cx="348.104" cy="305.553" r="55.652"/> <circle style="fill:#A0AD2F;" cx="305.553" cy="348.104" r="55.652"/> <path style="fill:#F8513A;" d="M374.056,374.056l-59.028-19.676l-19.676-59.028c21.733-21.733,56.97-21.733,78.704,0 S395.789,352.323,374.056,374.056z"/> <path style="fill:#F72E12;" d="M295.352,374.056c-21.733-21.733-21.733-56.971,0-78.704l78.704,78.704 C352.323,395.789,317.086,395.789,295.352,374.056z"/> <path style="fill:#FA7461;" d="M358.315,358.315l-35.417-11.806l-11.806-35.417c13.04-13.04,34.183-13.04,47.222,0 C371.354,324.133,371.356,345.275,358.315,358.315z"/> <path style="fill:#F8513A;" d="M311.092,358.315c-13.04-13.04-13.04-34.183,0-47.222l47.222,47.222 C345.275,371.356,324.133,371.356,311.092,358.315z"/> <circle style="fill:#A0AD2F;" cx="348.104" cy="206.447" r="55.652"/> <circle style="fill:#BEC130;" cx="305.553" cy="163.896" r="55.652"/> <path style="fill:#F72E12;" d="M374.056,137.944l-59.028,19.676l-19.676,59.028c21.733,21.733,56.97,21.733,78.704,0 S395.789,159.677,374.056,137.944z"/> <g> <path style="fill:#F8513A;" d="M295.352,137.944c-21.733,21.733-21.733,56.971,0,78.704l78.704-78.704 C352.323,116.211,317.086,116.211,295.352,137.944z"/> <path style="fill:#F8513A;" d="M358.315,153.685l-35.417,11.806l-11.806,35.417c13.04,13.04,34.183,13.04,47.222,0 C371.356,187.867,371.356,166.725,358.315,153.685z"/> </g> <path style="fill:#FA7461;" d="M311.092,153.685c-13.04,13.04-13.04,34.183,0,47.222l47.222-47.222 C345.275,140.644,324.133,140.644,311.092,153.685z"/> <circle style="fill:#A0AD2F;" cx="206.447" cy="348.104" r="55.652"/> <circle style="fill:#DDD532;" cx="163.896" cy="305.553" r="55.652"/> <path style="fill:#F8513A;" d="M137.944,374.056l19.676-59.028l59.028-19.676c21.733,21.733,21.733,56.97,0,78.704 S159.677,395.789,137.944,374.056z"/> <g> <path style="fill:#FA7461;" d="M137.944,295.352c21.733-21.733,56.971-21.733,78.704,0l-78.704,78.704 C116.211,352.323,116.211,317.086,137.944,295.352z"/> <path style="fill:#FA7461;" d="M153.685,358.315l11.806-35.417l35.417-11.806c13.04,13.04,13.04,34.183,0,47.222 C187.867,371.356,166.725,371.356,153.685,358.315z"/> </g> <path style="fill:#FB9789;" d="M153.685,311.092c13.04-13.04,34.183-13.04,47.222,0l-47.222,47.222 C140.644,345.275,140.644,324.133,153.685,311.092z"/> <path style="fill:#813115;" d="M400.818,224.523L287.477,111.182c-8.659-8.648-20.068-12.978-31.477-12.978L211.478,256L256,413.796 c11.409,0,22.817-4.33,31.477-12.978l113.341-113.341C418.126,270.169,418.126,241.831,400.818,224.523z"/> <path style="fill:#FFE376;" d="M385.077,240.265L271.736,126.923c-4.166-4.161-9.758-6.458-15.736-6.458L211.478,256L256,391.535 c5.978,0,11.57-2.297,15.745-6.468l113.331-113.331c4.166-4.166,6.461-9.755,6.461-15.736S389.244,244.43,385.077,240.265z"/> <rect x="278.261" y="209.508" style="fill:#FFC207;" width="22.261" height="22.261"/> <rect x="322.783" y="254.03" style="fill:#FFD23E;" width="22.261" height="22.261"/> <path style="fill:#A56840;" d="M111.182,224.523l113.341-113.341c8.659-8.648,20.068-12.978,31.477-12.978v22.261L222.609,256 L256,391.535v22.261c-11.409,0-22.817-4.33-31.477-12.978L111.182,287.477C93.874,270.169,93.874,241.831,111.182,224.523z"/> <path style="fill:#FFF3AD;" d="M126.923,240.265l113.341-113.342c4.166-4.161,9.758-6.458,15.736-6.458v271.071 c-5.978,0-11.57-2.297-15.745-6.468L126.923,271.736c-4.166-4.166-6.461-9.755-6.461-15.736S122.756,244.43,126.923,240.265z"/> <rect x="189.217" y="231.769" style="fill:#FFE376;" width="22.261" height="22.261"/> <rect x="211.478" y="298.552" style="fill:#FFD23E;" width="22.261" height="22.261"/> <rect x="211.478" y="187.247" style="fill:#FFE376;" width="22.261" height="22.261"/> </g>
</svg>