<!DOCTYPE svg PUBLIC "-//W3C//DTD SVG 1.1//EN" "http://www.w3.org/Graphics/SVG/1.1/DTD/svg11.dtd">
<!-- Uploaded to: SVG Repo, www.svgrepo.com, Transformed by: SVG Repo Mixer Tools -->
<svg version="1.1" id="Layer_1" xmlns="http://www.w3.org/2000/svg" xmlns:xlink="http://www.w3.org/1999/xlink" viewBox="0 0 512.00 512.00" xml:space="preserve" width="256px" height="256px" fill="#000000">
<g id="SVGRepo_bgCarrier" stroke-width="0">
<rect x="0" y="0" width="512.00" height="512.00" rx="256" fill="#7ed0ec" strokewidth="0"/>
</g>
<g id="SVGRepo_tracerCarrier" stroke-linecap="round" stroke-linejoin="round"/>
<g id="SVGRepo_iconCarrier"> <path style="fill:#A56840;" d="M502.477,186.613C472.228,78.944,373.336,0,256,0C114.615,0,0,114.616,0,256 c0,122.287,85.749,224.531,200.395,249.926L502.477,186.613z"/> <path style="fill:#934D2B;" d="M388.689,171.089l-34.741-34.741L46.876,220.811l7.11,114.63l67.13,67.13l-12.038,12.038 l91.317,91.317C218.299,509.892,236.902,512,256,512c141.384,0,256-114.615,256-256c0-24.048-3.324-47.32-9.523-69.387 L414.21,98.346L388.689,171.089z"/> <rect x="376.209" y="114.087" style="fill:#813115;" width="33.391" height="278.261"/> <rect x="398.47" y="114.087" style="fill:#692811;" width="22.261" height="278.261"/> <path style="fill:#220D06;" d="M398.47,91.826l-11.13,22.261l11.13,22.261c12.295,0,22.261-9.966,22.261-22.261 S410.763,91.826,398.47,91.826z"/> <path style="fill:#521F0E;" d="M376.209,114.087c0,12.295,9.966,22.261,22.261,22.261V91.826 C386.175,91.826,376.209,101.792,376.209,114.087z"/> <path style="fill:#220D06;" d="M398.47,370.087l-11.13,22.261l11.13,22.261c12.295,0,22.261-9.966,22.261-22.261 S410.763,370.087,398.47,370.087z"/> <path style="fill:#521F0E;" d="M376.209,392.348c0,12.295,9.966,22.261,22.261,22.261v-44.522 C386.175,370.087,376.209,380.053,376.209,392.348z"/> <polygon style="fill:#FFF3AD;" points="331.687,136.348 198.122,392.348 231.513,414.609 309.426,414.609 353.948,414.609 353.948,136.348 "/> <polygon style="fill:#FFFFFF;" points="131.339,136.348 109.078,136.348 109.078,414.609 153.6,414.609 231.513,414.609 231.513,192 "/> <g> <polygon style="fill:#C9A06C;" points="231.513,114.087 209.252,258.783 331.687,192 331.687,136.348 "/> <path style="fill:#C9A06C;" d="M231.513,114.087v44.522V114.087z"/> </g> <polygon style="fill:#DBBC82;" points="131.339,136.348 131.339,192 231.513,258.783 231.513,114.087 "/> <path style="fill:#B78456;" d="M301.665,199.436c-5.683,2.842-10.173,5.085-20.068,5.085c-9.895,0-14.384-2.244-20.068-5.085 c-6.625-3.312-14.869-7.434-30.014-7.436l-44.523,72.348l44.522,105.739h100.174V192C316.536,192,308.291,196.123,301.665,199.436z"/> <path style="fill:#C9A06C;" d="M201.486,199.436c-5.682,2.842-10.17,5.085-20.063,5.085c-9.894,0-14.382-2.244-20.065-5.085 c-6.626-3.314-14.871-7.436-30.02-7.436v178.087h100.168V192C216.358,192,208.112,196.123,201.486,199.436z"/> <path style="fill:#DBBC82;" d="M331.687,136.348H231.513l-22.261-22.261l22.261-22.261h55.652 C311.652,91.826,331.687,111.861,331.687,136.348z"/> <path style="fill:#FFF3AD;" d="M231.513,91.826v44.522H131.339c0-24.487,20.035-44.522,44.522-44.522H231.513z"/> <rect x="220.383" y="125.217" style="fill:#FFFFFF;" width="22.261" height="134.957"/> <polygon style="fill:#FFF3AD;" points="209.252,258.783 231.513,331.13 270.47,331.13 270.47,269.913 "/> <polygon style="fill:#FFFFFF;" points="192.557,269.913 192.557,331.13 231.513,331.13 231.513,258.783 "/> <polygon style="fill:#FFE376;" points="231.513,247.652 209.252,258.783 231.513,269.913 270.47,269.913 270.47,247.652 "/> <rect x="192.557" y="247.652" style="fill:#FFF3AD;" width="38.957" height="22.261"/> <path style="fill:#FFFFFF;" d="M81.252,192c-27.618,0-50.087,22.469-50.087,50.087v27.826v10.436 c0,43.03,34.883,77.913,77.913,77.913l11.13-11.13l-11.13-11.13c-30.687,0-55.652-24.966-55.652-55.652v-10.436v-27.826 c0-15.343,12.483-27.826,27.826-27.826s27.826,12.483,27.826,27.826l11.13,44.151h11.13v-44.151 C131.339,214.469,108.87,192,81.252,192z"/> <path style="fill:#220D06;" d="M459.687,239.304L451.339,256l8.348,16.696c9.22,0,16.696-7.475,16.696-16.696 S468.907,239.304,459.687,239.304z"/> <path style="fill:#521F0E;" d="M442.991,256c0,9.22,7.475,16.696,16.696,16.696v-33.391C450.466,239.304,442.991,246.78,442.991,256 z"/> <path style="fill:#220D06;" d="M459.687,183.652l-8.348,16.696l8.348,16.696c9.22,0,16.696-7.475,16.696-16.696 C476.383,191.127,468.907,183.652,459.687,183.652z"/> <path style="fill:#521F0E;" d="M442.991,200.348c0,9.22,7.475,16.696,16.696,16.696v-33.391 C450.466,183.652,442.991,191.127,442.991,200.348z"/> <path style="fill:#220D06;" d="M459.687,294.957l-8.348,16.696l8.348,16.696c9.22,0,16.696-7.475,16.696-16.696 S468.907,294.957,459.687,294.957z"/> <path style="fill:#521F0E;" d="M442.991,311.652c0,9.22,7.475,16.696,16.696,16.696v-33.391 C450.466,294.957,442.991,302.432,442.991,311.652z"/> </g>
</svg>