<svg xmlns="http://www.w3.org/2000/svg" xmlns:xlink="http://www.w3.org/1999/xlink" version="1.1" width="256" height="256" viewBox="0 0 256 256" xml:space="preserve">

<defs>
</defs>
<g style="stroke: none; stroke-width: 0; stroke-dasharray: none; stroke-linecap: butt; stroke-linejoin: miter; stroke-miterlimit: 10; fill: none; fill-rule: nonzero; opacity: 1;" transform="translate(1.4065934065934016 1.4065934065934016) scale(2.81 2.81)" >
	<path d="M 82.169 81.304 H 20.005 c -3.773 0 -6.831 -3.059 -6.831 -6.831 v -42.28 c 0 -3.773 3.059 -6.831 6.831 -6.831 h 62.163 c 3.773 0 6.831 3.059 6.831 6.831 v 42.28 C 89 78.245 85.941 81.304 82.169 81.304 z" style="stroke: none; stroke-width: 1; stroke-dasharray: none; stroke-linecap: butt; stroke-linejoin: miter; stroke-miterlimit: 10; fill: rgb(129,223,252); fill-rule: nonzero; opacity: 1;" transform=" matrix(1 0 0 1 0 0) " stroke-linecap="round" />
	<path d="M 77.645 25.361 L 76.385 14.23 c -0.387 -3.421 -3.475 -5.881 -6.897 -5.493 l -62.955 7.13 c -3.421 0.387 -5.881 3.475 -5.493 6.897 L 5.932 65.96 c 0.387 3.421 3.475 5.881 6.897 5.493 l 0.345 0.04 V 32.193 c 0 -3.773 3.059 -6.831 6.831 -6.831 L 77.645 25.361 z" style="stroke: none; stroke-width: 1; stroke-dasharray: none; stroke-linecap: butt; stroke-linejoin: miter; stroke-miterlimit: 10; fill: rgb(200,239,254); fill-rule: nonzero; opacity: 1;" transform=" matrix(1 0 0 1 0 0) " stroke-linecap="round" />
	<path d="M 89 42.355 L 48.941 61.012 c -1.863 0.868 -4.076 0.366 -5.384 -1.219 l -3.064 -3.715 c -1.328 -1.61 -3.586 -2.099 -5.461 -1.182 L 13.174 65.582 v 8.89 c 0 3.773 3.059 6.831 6.831 6.831 h 62.163 c 3.773 0 6.831 -3.059 6.831 -6.831 V 42.355 z" style="stroke: none; stroke-width: 1; stroke-dasharray: none; stroke-linecap: butt; stroke-linejoin: miter; stroke-miterlimit: 10; fill: rgb(104,202,68); fill-rule: nonzero; opacity: 1;" transform=" matrix(1 0 0 1 0 0) " stroke-linecap="round" />
	<circle cx="49.987" cy="42.737" r="6.647" style="stroke: none; stroke-width: 1; stroke-dasharray: none; stroke-linecap: butt; stroke-linejoin: miter; stroke-miterlimit: 10; fill: rgb(229,210,48); fill-rule: nonzero; opacity: 1;" transform="  matrix(1 0 0 1 0 0) "/>
	<path d="M 82.169 82.304 H 20.005 c -4.318 0 -7.832 -3.513 -7.832 -7.831 v -42.28 c 0 -4.318 3.513 -7.832 7.832 -7.832 h 62.164 c 4.318 0 7.831 3.513 7.831 7.832 v 42.28 C 90 78.791 86.487 82.304 82.169 82.304 z M 20.005 26.361 c -3.215 0 -5.832 2.616 -5.832 5.832 v 42.28 c 0 3.215 2.616 5.831 5.832 5.831 h 62.164 c 3.215 0 5.831 -2.616 5.831 -5.831 v -42.28 c 0 -3.215 -2.616 -5.832 -5.831 -5.832 H 20.005 z" style="stroke: none; stroke-width: 1; stroke-dasharray: none; stroke-linecap: butt; stroke-linejoin: miter; stroke-miterlimit: 10; fill: rgb(0,0,0); fill-rule: nonzero; opacity: 1;" transform=" matrix(1 0 0 1 0 0) " stroke-linecap="round" />
	<path d="M 14.174 72.616 l -1.35 -0.157 c -1.88 0.188 -3.723 -0.362 -5.204 -1.542 c -1.512 -1.203 -2.464 -2.924 -2.681 -4.845 L 0.046 22.875 c -0.449 -3.963 2.411 -7.554 6.375 -8.003 l 62.955 -7.129 c 1.922 -0.216 3.81 0.326 5.321 1.53 c 1.512 1.204 2.464 2.924 2.681 4.844 l 1.388 12.245 h -58.76 c -3.215 0 -5.832 2.616 -5.832 5.832 V 72.616 z M 70.2 9.696 c -0.199 0 -0.398 0.011 -0.6 0.034 L 6.646 16.859 c -2.868 0.325 -4.937 2.923 -4.612 5.791 l 4.893 43.197 c 0.157 1.39 0.846 2.634 1.94 3.505 c 0.951 0.758 2.109 1.142 3.308 1.141 v -38.3 c 0 -4.318 3.513 -7.832 7.832 -7.832 h 56.52 l -1.134 -10.02 c -0.158 -1.389 -0.847 -2.634 -1.94 -3.505 C 72.516 10.091 71.379 9.696 70.2 9.696 z" style="stroke: none; stroke-width: 1; stroke-dasharray: none; stroke-linecap: butt; stroke-linejoin: miter; stroke-miterlimit: 10; fill: rgb(0,0,0); fill-rule: nonzero; opacity: 1;" transform=" matrix(1 0 0 1 0 0) " stroke-linecap="round" />
	<path d="M 82.169 82.304 H 20.005 c -4.318 0 -7.832 -3.513 -7.832 -7.831 v -9.515 l 22.419 -10.961 c 2.3 -1.122 5.043 -0.529 6.671 1.445 l 3.064 3.714 c 1.018 1.233 2.742 1.624 4.191 0.949 L 90 40.786 v 33.687 C 90 78.791 86.487 82.304 82.169 82.304 z M 14.174 66.206 v 8.267 c 0 3.215 2.616 5.831 5.832 5.831 h 62.164 c 3.215 0 5.831 -2.616 5.831 -5.831 V 43.924 L 49.363 61.918 c -2.273 1.059 -4.979 0.448 -6.578 -1.488 l -3.064 -3.715 c -1.037 -1.259 -2.784 -1.636 -4.25 -0.921 L 14.174 66.206 z" style="stroke: none; stroke-width: 1; stroke-dasharray: none; stroke-linecap: butt; stroke-linejoin: miter; stroke-miterlimit: 10; fill: rgb(0,0,0); fill-rule: nonzero; opacity: 1;" transform=" matrix(1 0 0 1 0 0) " stroke-linecap="round" />
	<path d="M 49.985 50.386 c -4.217 0 -7.647 -3.431 -7.647 -7.646 c 0 -4.217 3.43 -7.647 7.647 -7.647 c 4.216 0 7.646 3.43 7.646 7.647 C 57.632 46.955 54.201 50.386 49.985 50.386 z M 49.985 37.092 c -3.113 0 -5.647 2.533 -5.647 5.647 c 0 3.113 2.534 5.646 5.647 5.646 s 5.646 -2.533 5.646 -5.646 C 55.632 39.625 53.099 37.092 49.985 37.092 z" style="stroke: none; stroke-width: 1; stroke-dasharray: none; stroke-linecap: butt; stroke-linejoin: miter; stroke-miterlimit: 10; fill: rgb(0,0,0); fill-rule: nonzero; opacity: 1;" transform=" matrix(1 0 0 1 0 0) " stroke-linecap="round" />
</g>
</svg>