<!DOCTYPE svg PUBLIC "-//W3C//DTD SVG 1.1//EN" "http://www.w3.org/Graphics/SVG/1.1/DTD/svg11.dtd">
<!-- Uploaded to: SVG Repo, www.svgrepo.com, Transformed by: SVG Repo Mixer Tools -->
<svg version="1.1" id="Layer_1" xmlns="http://www.w3.org/2000/svg" xmlns:xlink="http://www.w3.org/1999/xlink" viewBox="0 0 512.00 512.00" xml:space="preserve" width="256px" height="256px" fill="#000000">
<g id="SVGRepo_bgCarrier" stroke-width="0">
<rect x="0" y="0" width="512.00" height="512.00" rx="256" fill="#7ed0ec" strokewidth="0"/>
</g>
<g id="SVGRepo_tracerCarrier" stroke-linecap="round" stroke-linejoin="round"/>
<g id="SVGRepo_iconCarrier"> <path style="fill:#FFE376;" d="M511.831,264.868c0.1-2.945,0.169-5.898,0.169-8.868C512,114.615,397.384,0,256,0 C114.615,0,0,114.615,0,256c0,113.387,73.722,209.539,175.843,243.182L511.831,264.868z"/> <path style="fill:#FFC207;" d="M511.831,264.868L353.213,106.251L138.29,366.066l-82.638,12.926l120.191,120.191 C201.06,507.49,228.001,512,256,512C394.415,512,507.155,402.145,511.831,264.868z"/> <polygon style="fill:#A56840;" points="233.739,256.557 233.739,367.861 293.476,367.861 320.863,323.339 330.941,367.861 368.417,367.861 393.149,256.557 "/> <polygon style="fill:#C9A06C;" points="118.851,256.557 143.583,367.861 181.059,367.861 191.137,323.339 218.524,367.861 256,367.861 256,256.557 "/> <polygon style="fill:#B78456;" points="342.483,289.948 330.941,367.861 293.476,367.861 299.242,289.948 "/> <polygon style="fill:#DBBC82;" points="212.758,289.948 218.524,367.861 181.059,367.861 169.517,289.948 "/> <polygon style="fill:#FFE376;" points="422.957,378.991 400.696,417.948 256,417.948 234.295,367.861 "/> <g> <polygon style="fill:#FFF3AD;" points="111.304,417.948 256,417.948 256,367.861 89.043,378.991 "/> <polygon style="fill:#FFF3AD;" points="456.348,356.73 456.348,378.991 256,378.991 245.009,367.861 256,356.73 "/> </g> <rect x="55.652" y="356.73" style="fill:#FFFFFF;" width="200.348" height="22.261"/> <path style="fill:#F8513A;" d="M255.843,33.391l-19.478,38.957l19.478,38.957c21.515,0,38.957-17.441,38.957-38.957 S277.358,33.391,255.843,33.391z"/> <path style="fill:#FA7461;" d="M216.887,72.348c0,21.515,17.441,38.957,38.957,38.957V33.391 C234.328,33.391,216.887,50.833,216.887,72.348z"/> <polygon style="fill:#3A160A;" points="328.626,250.435 328.626,289.948 306.365,304.417 284.104,289.948 284.104,250.435 "/> <path style="fill:#521F0E;" d="M328.626,289.948v22.261c0,12.299-9.962,22.261-22.261,22.261s-22.261-9.962-22.261-22.261v-22.261 H328.626z"/> <path style="fill:#813115;" d="M420.23,218.746l-18.977-35.996H222.609L256,267.687h50.365l22.261-22.261l22.262,22.261h39.79 c18.443,0,33.391-14.948,33.391-33.391C424.07,228.675,422.678,223.388,420.23,218.746z"/> <path style="fill:#521F0E;" d="M379.301,141.123c0.002,0,21.951,41.628,21.951,41.628c-9.588,0-17.268,1.14-23.678,2.823 l-154.966-47.673L256,66.783C309.443,66.783,355.996,96.92,379.301,141.123z"/> <path style="fill:#934D2B;" d="M110.748,182.751L91.77,218.746c-2.449,4.641-3.84,9.928-3.84,15.549 c0,18.443,14.948,33.391,33.391,33.391H256v-84.936H110.748z"/> <path style="fill:#692811;" d="M132.699,141.123c-0.002,0-21.951,41.628-21.951,41.628c9.588,0,17.268,1.14,23.678,2.823L256,93.05 V66.783C202.557,66.783,156.004,96.92,132.699,141.123z"/> <path style="fill:#3A160A;" d="M359.609,151.504l17.966,34.069c-8.272,2.172-14.431,5.248-19.842,7.952 c-8.248,4.129-14.748,7.379-29.106,7.379c-14.347,0-20.847-3.25-29.095-7.379c-9.606-4.797-21.56-10.774-43.531-10.774 l-33.391-46.854L256,89.043C299.596,89.043,339.296,112.977,359.609,151.504z"/> <path style="fill:#521F0E;" d="M152.391,151.504l-17.966,34.069c8.272,2.172,14.431,5.248,19.842,7.952 c8.248,4.129,14.748,7.379,29.106,7.379c14.347,0,20.847-3.25,29.095-7.379c9.606-4.797,21.56-10.774,43.531-10.774V89.043 C212.404,89.043,172.704,112.977,152.391,151.504z"/> <rect x="306.365" y="175.304" style="fill:#3A160A;" width="44.522" height="92.377"/> </g>
</svg>