<!DOCTYPE svg PUBLIC "-//W3C//DTD SVG 1.1//EN" "http://www.w3.org/Graphics/SVG/1.1/DTD/svg11.dtd">
<!-- Uploaded to: SVG Repo, www.svgrepo.com, Transformed by: SVG Repo Mixer Tools -->
<svg height="256px" width="256px" version="1.1" id="Layer_1" xmlns="http://www.w3.org/2000/svg" xmlns:xlink="http://www.w3.org/1999/xlink" viewBox="0 0 512.00 512.00" xml:space="preserve" fill="#000000">
<g id="SVGRepo_bgCarrier" stroke-width="0">
<rect x="0" y="0" width="512.00" height="512.00" rx="256" fill="#7ed0ec" strokewidth="0"/>
</g>
<g id="SVGRepo_tracerCarrier" stroke-linecap="round" stroke-linejoin="round"/>
<g id="SVGRepo_iconCarrier"> <path style="fill:#365F2C;" d="M512,256C512,114.615,397.385,0,256,0S0,114.615,0,256c0,107.084,65.756,198.794,159.085,236.998 L512,256z"/> <path style="fill:#193D2F;" d="M512,256L339.478,83.478L94.609,428.522l64.476,64.476C188.981,505.237,221.698,512,256,512 C397.385,512,512,397.384,512,256z"/> <polygon style="fill:#FFE376;" points="306.087,83.478 161.386,261.565 217.043,428.522 339.478,428.522 339.478,83.478 "/> <polygon style="fill:#FFF3AD;" points="94.609,83.478 94.609,428.522 217.043,428.522 217.038,139.13 128,83.478 "/> <polygon style="fill:#FFC207;" points="217.043,83.478 194.783,205.913 317.217,139.13 317.217,83.478 "/> <polygon style="fill:#FFD23E;" points="116.87,83.478 116.87,139.13 217.043,205.913 217.043,83.478 "/> <path style="fill:#F94C10;" d="M267.127,162.783c-25.043,0-25.045-12.52-50.084-12.522l-44.522,111.304L217.043,384h100.174V161.391 C317.217,161.391,292.173,162.783,267.127,162.783z"/> <g> <path style="fill:#FA690E;" d="M217.038,150.261c-25.041,0-25.041,12.522-50.084,12.522c-25.042,0-50.085-1.391-50.085-1.391V384 h100.174L217.038,150.261z"/> <path style="fill:#FA690E;" d="M267.127,173.913c-15.15,0-23.396-4.123-30.022-7.436c-5.682-2.84-10.171-5.085-20.063-5.085 l-11.129-11.13l11.132-11.13c15.145,0.001,23.391,4.124,30.014,7.436c5.683,2.842,10.173,5.085,20.068,5.085 s14.384-2.244,20.068-5.085c6.626-3.314,14.872-7.436,30.022-7.436v22.261c-9.895,0-14.384,2.244-20.068,5.085 C290.523,169.79,282.277,173.913,267.127,173.913z"/> </g> <g> <path style="fill:#FC870B;" d="M166.954,173.913c-15.149,0-23.395-4.123-30.02-7.436c-5.683-2.842-10.171-5.085-20.065-5.085 V139.13c15.149,0,23.395,4.123,30.02,7.436c5.682,2.842,10.171,5.085,20.065,5.085c9.893,0,14.381-2.244,20.063-5.085 c6.626-3.314,14.871-7.436,30.02-7.436v22.261c-9.894,0-14.382,2.244-20.064,5.085C190.348,169.79,182.103,173.913,166.954,173.913 z"/> <path style="fill:#FC870B;" d="M339.478,183.652c67.608,0,122.435,54.826,122.435,122.435s-54.826,122.435-122.435,122.435 l-48.974-122.435L339.478,183.652z"/> </g> <path style="fill:#FDA409;" d="M339.478,183.652v244.87c-67.608,0-122.435-54.826-122.435-122.435S271.87,183.652,339.478,183.652z"/> <path style="fill:#FFF3AD;" d="M339.478,205.913c55.316,0,100.174,44.858,100.174,100.174s-44.858,100.174-100.174,100.174 l-40.07-100.174L339.478,205.913z"/> <path style="fill:#FFFFFF;" d="M339.478,205.913v200.348c-55.316,0-100.174-44.858-100.174-100.174S284.162,205.913,339.478,205.913 z"/> <g> <path style="fill:#F94C10;" d="M358.756,320.742l27.507,47.643c15.181-11.42,26.04-28.261,29.732-47.643H358.756z"/> <path style="fill:#F94C10;" d="M389.062,245.99l-30.306,52.49h58.26C414.972,277.396,404.527,258.766,389.062,245.99z"/> <path style="fill:#F94C10;" d="M339.478,228.174l-11.13,29.588l11.13,29.588l30.568-52.944 C360.658,230.399,350.328,228.174,339.478,228.174z"/> <path style="fill:#F94C10;" d="M339.478,331.873l-11.13,26.064L339.478,384c9.591,0,18.773-1.743,27.258-4.915L339.478,331.873z"/> </g> <g> <path style="fill:#FA690E;" d="M262.962,320.742c3.692,19.381,14.551,36.223,29.732,47.643l27.507-47.643H262.962z"/> <path style="fill:#FA690E;" d="M339.478,287.351v-59.177c-10.85,0-21.18,2.225-30.568,6.233L339.478,287.351z"/> <path style="fill:#FA690E;" d="M339.478,384v-52.127l-27.258,47.213C320.706,382.257,329.887,384,339.478,384z"/> <path style="fill:#FA690E;" d="M289.894,245.99c-15.465,12.776-25.909,31.405-27.954,52.49h58.26L289.894,245.99z"/> </g> </g>
</svg>